<?xml version="1.0" encoding="UTF-8" standalone="no"?>
<!-- Created with Inkscape (http://www.inkscape.org/) -->

<svg
   xmlns:dc="http://purl.org/dc/elements/1.1/"
   xmlns:cc="http://creativecommons.org/ns#"
   xmlns:rdf="http://www.w3.org/1999/02/22-rdf-syntax-ns#"
   xmlns:svg="http://www.w3.org/2000/svg"
   xmlns="http://www.w3.org/2000/svg"
   xmlns:sodipodi="http://sodipodi.sourceforge.net/DTD/sodipodi-0.dtd"
   xmlns:inkscape="http://www.inkscape.org/namespaces/inkscape"
   width="108.6594mm"
   height="58.371593mm"
   viewBox="0 0 108.6594 58.371595"
   version="1.1"
   id="svg8"
   inkscape:version="0.92.4 (5da689c313, 2019-01-14)"
   sodipodi:docname="spirals.svg">
  <defs
     id="defs2" />
  <sodipodi:namedview
     id="base"
     pagecolor="#ffffff"
     bordercolor="#666666"
     borderopacity="1.0"
     inkscape:pageopacity="0.0"
     inkscape:pageshadow="2"
     inkscape:zoom="1.979899"
     inkscape:cx="318.10064"
     inkscape:cy="57.143504"
     inkscape:document-units="mm"
     inkscape:current-layer="layer1"
     showgrid="false"
     inkscape:window-width="1920"
     inkscape:window-height="986"
     inkscape:window-x="-11"
     inkscape:window-y="-11"
     inkscape:window-maximized="1" />
  <metadata
     id="metadata5">
    <rdf:RDF>
      <cc:Work
         rdf:about="">
        <dc:format>image/svg+xml</dc:format>
        <dc:type
           rdf:resource="http://purl.org/dc/dcmitype/StillImage" />
        <dc:title></dc:title>
      </cc:Work>
    </rdf:RDF>
  </metadata>
  <g
     inkscape:label="Layer 1"
     inkscape:groupmode="layer"
     id="layer1"
     transform="translate(-0.50084178,-1.9811809)">
    <path
       sodipodi:type="spiral"
       style="fill:none;fill-rule:evenodd;stroke:#000000;stroke-width:0.26458332"
       id="path3713"
       sodipodi:cx="23.920622"
       sodipodi:cy="26.523237"
       sodipodi:expansion="1"
       sodipodi:revolution="3"
       sodipodi:radius="16.863945"
       sodipodi:argument="-18.261553"
       sodipodi:t0="0"
       d="m 23.920622,26.523237 c 0.703524,0.469017 -0.285131,1.179733 -0.779537,1.169304 -1.339808,-0.02826 -1.874665,-1.630179 -1.559071,-2.728377 0.564524,-1.964418 2.913368,-2.65109 4.677218,-1.948838 2.588521,1.030583 3.446082,4.212357 2.338605,6.626058 -1.476092,3.217084 -5.516745,4.248717 -8.574899,2.728372 -3.848375,-1.913198 -5.055251,-6.823654 -3.118139,-10.523739 2.346103,-4.481299 8.131973,-5.864035 12.47258,-3.507906 5.115255,2.776615 6.674228,9.441169 3.897673,14.42142 -3.205641,5.749897 -10.750951,7.485361 -16.370261,4.28744 -6.385016,-3.63368 -8.297153,-12.061145 -4.677207,-18.319101 4.061032,-7.020481 13.371641,-9.1094237 20.267942,-5.066975 7.656201,4.487885 9.922052,14.682363 5.456742,22.216783" />
    <path
       sodipodi:type="spiral"
       style="fill:none;fill-rule:evenodd;stroke:#000000;stroke-width:0.26458332"
       id="path3715"
       sodipodi:cx="47.841244"
       sodipodi:cy="40.287617"
       sodipodi:expansion="1"
       sodipodi:revolution="3"
       sodipodi:radius="26.59466"
       sodipodi:argument="-18.196005"
       sodipodi:t0="0"
       d="m 47.841244,40.287617 c 1.058637,0.810728 -0.570552,1.827006 -1.347484,1.759524 -2.105439,-0.182872 -2.781632,-2.758939 -2.171565,-4.454492 1.091267,-3.032947 4.858399,-3.870886 7.5615,-2.583605 3.96691,1.889137 4.987725,6.984642 2.995646,10.668508 -2.655129,4.910014 -9.12017,6.116035 -13.775517,3.407686 -5.858278,-3.408181 -7.250221,-11.260068 -3.819726,-16.882524 4.154789,-6.809548 13.402418,-8.3878 19.989533,-4.231767 7.762686,4.897741 9.527505,15.546293 4.643807,23.096541 C 56.279015,59.784547 44.22625,61.736119 35.713889,56.123335 26.041604,49.745733 23.903138,36.286536 30.246001,26.812778 37.361735,16.184653 52.228934,13.859186 62.663566,20.93285 c 11.58442,7.853108 14.096975,24.12946 6.291969,35.524573" />
    <path
       sodipodi:type="spiral"
       style="fill:none;fill-rule:evenodd;stroke:#000000;stroke-width:0.26458332"
       id="path3717"
       sodipodi:cx="59.601105"
       sodipodi:cy="47.637531"
       sodipodi:expansion="1"
       sodipodi:revolution="3"
       sodipodi:radius="51.159081"
       sodipodi:argument="-18.240541"
       sodipodi:t0="0"
       d="m 59.601105,47.637531 c 2.103873,1.467353 -0.939985,3.559919 -2.438836,3.496775 -4.061794,-0.171114 -5.581896,-5.063764 -4.554715,-8.374447 1.837387,-5.922035 9.005119,-7.854982 14.310059,-5.612653 7.785213,3.290707 10.183372,12.995579 6.670592,20.245669 -4.681982,9.66323 -17.002901,12.534601 -26.18128,7.728532 C 35.85687,59.073459 32.509427,44.103288 38.620454,33.004515 46.021726,19.562414 63.65821,15.737392 76.672957,23.160105 92.010385,31.907515 96.313925,52.22025 87.575306,67.14822 77.486225,84.383151 54.490937,89.165849 37.65158,79.108508 18.517634,67.680718 13.255319,41.998623 24.633353,23.249171 37.397787,2.2151199 65.769697,-3.5271536 86.428301,9.1730044 109.36327,23.272587 115.58576,54.336517 101.56241,76.903564"
       transform="matrix(1.1995493,0,0,0.71095119,-21.75113,0.31295922)" />
    <path
       style="fill:#00ffff;stroke-width:0.50507629"
       d="m 143.57044,178.46973 c -15.47608,-3.88765 -27.08244,-8.61051 -36.92229,-15.02445 -4.71135,-3.07102 -4.49368,-2.51195 -5.07779,-13.04193 -0.32452,-5.85013 -0.30992,-5.96684 0.7819,-6.25236 1.87966,-0.49155 8.04804,-3.58805 10.55655,-5.29936 5.55864,-3.79211 11.46458,-10.51302 14.43264,-16.42422 2.03715,-4.05719 3.80595,-10.85242 4.15622,-15.96707 0.35322,-5.15753 -0.53313,-11.589492 -2.3046,-16.723822 -1.22289,-3.544351 -1.30053,-3.406232 4.26812,-7.593012 5.14493,-3.868208 10.41953,-6.987771 10.93814,-6.469159 0.81897,0.818967 3.89713,8.927138 4.93915,13.010202 1.16535,4.566294 2.05034,11.585521 2.0565,16.310931 l 0.004,3.17895 -4.20037,4.43219 c -4.77676,5.04037 -8.17152,10.19162 -10.40964,15.79571 -2.64069,6.61205 -3.25117,10.03037 -3.28002,18.36599 -0.0221,6.37964 0.15725,8.25416 1.13546,11.86929 1.54162,5.69729 4.86843,12.59617 8.09839,16.79379 1.44284,1.87509 2.44656,3.3829 2.2305,3.35067 -0.21596,-0.0322 -0.84731,-0.17278 -1.4029,-0.31234 z"
       id="path3719"
       inkscape:connector-curvature="0"
       transform="scale(0.26458333)" />
    <path
       style="fill:#00ffff;stroke-width:0.50507629"
       d="m 263.9885,209.46743 c 13.14069,-21.46933 17.54042,-49.48649 11.68116,-74.38474 -8.67532,-36.864825 -36.93706,-64.045169 -73.51037,-70.697602 -7.20363,-1.310292 -24.23972,-1.314845 -31.31473,-0.0084 -6.86214,1.267166 -12.57697,2.960324 -19.1929,5.686364 -3.05571,1.25908 -5.9041,2.39783 -6.32977,2.530554 -0.50938,0.15883 -1.16488,-0.454284 -1.91765,-1.793672 -0.62906,-1.119244 -2.03867,-3.167167 -3.13248,-4.550939 -1.09381,-1.383772 -1.81348,-2.624265 -1.59928,-2.75665 0.99647,-0.615848 11.24906,-3.411818 17.57327,-4.792379 16.28759,-3.555544 30.96756,-4.873875 49.70161,-4.463443 22.08246,0.48379 40.19664,3.469426 58.87724,9.704332 51.38029,17.148865 78.6386,54.042675 66.58221,90.118255 -3.35311,10.03329 -8.55332,17.9935 -17.86678,27.34957 -13.30222,13.36306 -26.52465,21.44771 -50.93397,31.14275 -0.3671,0.1458 0.255,-1.24201 1.38244,-3.08403 z"
       id="path3721"
       inkscape:connector-curvature="0"
       transform="scale(0.26458333)" />
    <path
       style="fill:#00ffff;stroke-width:0.50507629"
       d="m 82.722727,100.33806 c -1.002024,-2.635524 -0.631256,-5.975512 0.938025,-8.450013 1.726856,-2.72297 5.709125,-4.971265 8.805299,-4.971265 h 1.982816 l -2.950454,3.360612 c -1.622749,1.848337 -4.144344,5.175297 -5.603544,7.393243 -2.624667,3.989423 -2.658652,4.018003 -3.172142,2.667423 z"
       id="path3723"
       inkscape:connector-curvature="0"
       transform="scale(0.26458333)" />
    <path
       style="fill:#ffff00;stroke-width:0.50507629"
       d="m 86.188848,143.00982 c -1.98277,-3.14373 -4.447149,-9.61756 -5.358259,-14.07595 -0.415006,-2.03077 -0.673584,-3.76947 -0.574618,-3.86378 0.09897,-0.0943 1.542228,0.0652 3.20725,0.35446 5.787235,1.00541 13.448485,-0.95734 18.383079,-4.70958 2.44118,-1.85626 2.68795,-1.94802 2.38767,-0.88788 -2.24745,7.93462 -3.2829,13.15981 -4.10235,20.70159 l -0.309853,2.85173 -2.369323,0.60372 c -1.303128,0.33204 -4.043801,0.7667 -6.090386,0.96591 l -3.721063,0.36219 z"
       id="path3725"
       inkscape:connector-curvature="0"
       transform="scale(0.26458333)" />
    <path
       style="fill:#ffff00;stroke-width:0.50507629"
       d="m 164.53111,181.32656 c -3.19461,-0.21911 -8.19486,-0.7496 -11.11168,-1.17887 -5.23863,-0.77095 -5.32699,-0.80678 -7.24629,-2.93779 -4.62334,-5.13331 -8.2722,-12.04541 -10.22669,-19.37256 -1.43812,-5.39136 -1.32899,-17.21991 0.21132,-22.90456 1.3997,-5.16573 3.79791,-10.47363 6.58956,-14.58451 2.2439,-3.3043 7.63587,-9.36195 8.00478,-8.99305 0.37376,0.37376 -1.39498,8.33987 -2.7558,12.41168 -0.70005,2.09469 -2.15272,5.56493 -3.22815,7.71165 -2.21991,4.43127 -2.21973,4.43063 -1.21215,4.43063 0.89198,0 4.21611,-6.71644 6.05279,-12.22972 0.71385,-2.14278 1.6928,-6.21251 2.17546,-9.04385 l 0.87756,-5.14788 2.52538,-1.89869 c 3.13024,-2.35345 8.83519,-5.23533 13.51423,-6.82678 5.82476,-1.981126 11.01043,-2.739684 18.2351,-2.66742 6.01909,0.0602 6.31579,0.103649 3.18931,0.467008 -21.29047,2.474382 -35.78009,11.837382 -35.91099,23.205192 -0.071,6.16854 3.88946,11.62087 10.73062,14.77262 1.85554,0.85486 3.42399,1.58651 3.48545,1.62588 0.0615,0.0394 -0.36293,1.031 -0.94309,2.2036 -1.46369,2.95838 -1.77508,7.7711 -0.73441,11.35088 2.06733,7.11135 9.34292,10.09782 14.20347,5.8302 1.96381,-1.72425 2.33478,-3.81847 0.92595,-5.2273 -1.04275,-1.04275 -1.88233,-0.0335 -1.06323,1.2781 0.75161,1.20352 0.18877,2.33416 -1.7506,3.51659 -2.10148,1.28126 -3.9514,1.28287 -6.45501,0.006 -4.55058,-2.32153 -6.49368,-10.14648 -3.91712,-15.77443 l 1.26092,-2.75422 5.31902,0.23656 c 4.42251,0.19669 5.907,0.058 8.80747,-0.82302 3.76466,-1.14351 7.72094,-3.6522 7.72094,-4.89591 0,-1.41525 1.38272,-1.3251 4.60217,0.30007 13.19999,6.66334 17.87544,24.42627 10.22912,38.86236 -0.95639,1.80565 -2.47644,4.14461 -3.37789,5.1977 -1.52675,1.78359 -1.94077,1.96355 -6.04614,2.62813 -5.07223,0.82108 -18.74059,1.80502 -23.58139,1.69753 -1.81039,-0.0402 -5.90538,-0.25236 -9.09999,-0.47147 z"
       id="path3727"
       inkscape:connector-curvature="0"
       transform="scale(0.26458333)" />
    <path
       style="fill:#ffff00;stroke-width:0.50507629"
       d="M 75.35494,143.76775 C 67.262501,141.67539 60.02804,137.38938 53.850297,131.02746 45.303402,122.22576 40.948096,111.8982 40.418233,99.176569 39.998908,89.108879 41.381637,82.178331 45.433817,74.037337 53.562484,57.706517 69.54517,46.963735 88.696141,44.958513 104.34615,43.319863 120.38987,48.758374 132.43719,59.78588 l 3.48205,3.187297 -2.48785,0.91115 c -1.36832,0.501133 -5.87066,2.399756 -10.00521,4.219162 -7.39365,3.253577 -7.53909,3.293804 -8.83883,2.44463 -7.5392,-4.92568 -17.170837,-7.134139 -25.552236,-5.858925 -11.857523,1.804099 -20.936551,8.100614 -25.918144,17.974827 -2.25808,4.475832 -3.187317,8.64839 -3.18063,14.282 0.01397,11.763529 6.219921,21.871809 16.196277,26.380559 2.087142,0.94327 2.536151,1.37561 2.539064,2.44484 0.0076,2.79403 2.160537,10.09346 4.18183,14.17837 1.168382,2.36123 2.200937,4.46361 2.294567,4.67196 0.352882,0.78523 -5.390215,0.28441 -9.793138,-0.854 z"
       id="path3729"
       inkscape:connector-curvature="0"
       transform="scale(0.26458333)" />
    <path
       style="fill:#ffff00;stroke-width:0.50507629"
       d="m 244.69775,153.93123 c -0.4145,-9.81697 -2.95451,-18.85449 -7.75275,-27.58476 -5.79243,-10.53917 -16.43493,-20.32295 -27.23539,-25.03782 -3.92756,-1.714549 -3.97089,-1.752718 -1.99448,-1.756764 2.79982,-0.0057 10.3616,1.278614 14.89975,2.530674 17.49316,4.8263 29.45426,14.16939 33.67413,26.30362 2.3734,6.8247 1.52503,15.11079 -2.21815,21.66514 -1.68067,2.94286 -6.41672,8.78483 -7.9207,9.77028 l -1.1713,0.76746 z"
       id="path3731"
       inkscape:connector-curvature="0"
       transform="scale(0.26458333)" />
    <path
       style="fill:#00ff00;stroke-width:0.50507629"
       d="m 205.12133,177.70424 c 9.58244,-13.40424 8.73527,-31.21748 -1.96051,-41.22285 -3.7051,-3.46595 -5.79781,-4.67181 -11.03546,-6.35887 -3.17861,-1.02384 -4.04944,-1.10677 -7.3912,-0.70392 -6.26922,0.75578 -9.78138,2.2131 -13.4227,5.56955 l -2.2106,2.03766 -3.23108,-1.51201 c -6.44929,-3.01798 -9.92497,-7.7436 -9.92497,-13.49422 0,-4.1469 1.67159,-7.41925 5.72851,-11.2143 6.55846,-6.13512 16.98816,-9.92684 30.91884,-11.240541 5.03899,-0.475192 5.90559,-0.426791 9.32884,0.521041 24.10148,6.67321 41.41139,30.39058 41.39947,56.72396 l -0.003,5.61594 -3.40672,2.32723 c -8.53847,5.83288 -17.8788,9.79385 -30.76499,13.04658 -5.09174,1.28526 -5.01311,1.28712 -4.02488,-0.0952 z"
       id="path3733"
       inkscape:connector-curvature="0"
       transform="scale(0.26458333)" />
    <path
       style="fill:#00ff00;stroke-width:0.50507629"
       d="m 110.35676,101.94208 c -0.50806,-6.717663 -4.42674,-12.736847 -9.85548,-15.138236 l -2.356335,-1.042319 2.257165,-1.96301 c 2.50038,-2.174537 9.5528,-7.090969 13.19321,-9.197344 l 2.34977,-1.359594 3.20607,3.240474 c 1.76335,1.782261 4.05278,4.674056 5.08764,6.426211 l 1.88156,3.185737 -2.6481,2.810504 c -4.25872,4.51989 -7.12175,8.082344 -10.07414,12.535157 l -2.76408,4.16882 z"
       id="path3735"
       inkscape:connector-curvature="0"
       transform="scale(0.26458333)" />
    <path
       style="fill:none;stroke:#000000;stroke-width:0.26458332px;stroke-linecap:butt;stroke-linejoin:miter;stroke-opacity:1"
       d="M 82.452648,48.973877 108.7787,39.352175"
       id="path3737"
       inkscape:connector-curvature="0" />
    <path
       style="fill:#00ff00;stroke-width:0.50507629"
       d="M 161.50065,226.83878 C 126.27417,225.1464 92.483433,216.85668 65.788697,203.35821 29.842084,185.18144 7.539196,158.57938 3.8811144,129.51714 3.1013379,123.32208 3.5606871,112.86367 4.8648386,107.11983 6.238734,101.06882 7.6470273,97.062895 10.546782,90.957392 29.250977,51.575268 84.072387,21.27475 153.92451,11.710627 c 18.29494,-2.5049353 23.45705,-2.8122048 47.22463,-2.8109984 24.33637,0.00124 30.60864,0.389494 49.24493,3.0482984 53.07657,7.572332 98.7316,27.421406 127.70989,55.523418 17.10688,16.589574 27.15082,33.760755 31.46377,53.790625 0.9719,4.51363 1.14537,6.86004 1.165,15.7581 0.014,6.3321 -0.17611,10.65178 -0.48201,10.95433 -0.54631,0.5403 -94.72294,35.05773 -94.96507,34.8064 -0.0806,-0.0836 1.44447,-1.97034 3.38899,-4.19267 17.9868,-20.55659 22.01258,-44.36696 11.2757,-66.68984 C 323.90487,99.329228 310.57708,85.606144 295.6877,76.619433 270.01831,61.126269 237.37345,52.987852 200.8966,52.987852 c -21.6438,0 -42.3793,2.894064 -59.599,8.31826 l -3.78807,1.193242 -3.61112,-3.399052 C 115.94645,42.202545 90.238904,38.441237 67.809002,49.430664 52.939132,56.716088 41.943706,71.78006 39.257499,88.546845 c -0.858065,5.355879 -0.372119,15.588125 1.000952,21.076375 2.678038,10.70428 9.359196,20.94887 17.819853,27.32416 7.445784,5.61057 15.784547,8.85387 24.218154,9.41945 l 4.385926,0.29414 1.489869,2.07398 c 1.808592,2.51766 9.205116,9.94611 11.402698,11.45192 1.416209,0.9704 1.730689,1.67357 2.890059,6.46208 6.19822,25.60023 25.21627,46.51646 49.39864,54.32909 8.97817,2.90059 13.29487,3.54721 23.5266,3.52419 7.45945,-0.0168 10.04332,-0.22418 14.39467,-1.15541 14.05877,-3.00873 24.84287,-8.53808 34.47272,-17.67528 11.03336,-10.46891 18.09542,-23.98579 20.07129,-38.41676 l 0.56282,-4.11056 4.14012,-4.16643 c 6.39535,-6.43598 9.56517,-12.76828 10.25023,-20.47673 1.0929,-12.29752 -7.66285,-24.9831 -22.27255,-32.26911 -9.6535,-4.81431 -23.21223,-8.15969 -33.20854,-8.193631 -1.59718,-0.0054 -5.00644,-0.376317 -7.57614,-0.824209 -6.78208,-1.182101 -17.61643,-0.73928 -24.2577,0.99146 -5.17162,1.347745 -12.66391,4.66243 -16.52743,7.31194 l -2.27285,1.55866 -0.58819,-6.92297 c -0.81408,-9.58158 -2.54118,-16.432152 -5.77316,-22.899325 l -1.42149,-2.844383 4.11102,-1.879197 c 5.691,-2.60142 13.38953,-5.051591 20.17075,-6.41963 4.93018,-0.994617 7.26615,-1.154847 16.83611,-1.154847 9.56995,0 11.90593,0.16023 16.8361,1.154847 27.74135,5.596528 50.59593,23.073303 63.20536,48.332775 4.02113,8.05522 6.49958,15.21235 8.45727,24.42241 1.25261,5.89299 1.35949,7.32524 1.38126,18.50907 0.0247,12.68815 -0.25455,15.37838 -2.55543,24.62003 -2.35753,9.46918 -5.90526,17.88869 -11.47743,27.23829 l -2.61107,4.38115 -4.79823,1.53721 c -28.06937,8.99261 -61.77482,13.20842 -93.43911,11.68718 z"
       id="path3739"
       inkscape:connector-curvature="0"
       transform="scale(0.26458333)" />
    <path
       style="fill:#37abc8;stroke-width:0.50507629"
       d="M 155.1872,226.24675 C 129.85914,224.4394 102.64415,218.48242 81.593822,210.13818 38.752986,193.15629 10.133157,164.42293 4.6396253,132.87872 3.3714041,125.59651 3.8537059,111.66457 5.6062089,104.95765 13.554182,74.540322 41.952019,47.716629 84.981595,29.982183 110.76238,19.356749 144.5481,11.738327 175.15472,9.6488324 c 9.446,-0.644872 42.48612,-0.6432966 52.25838,0.00249 23.62143,1.5609936 51.12321,6.8763326 73.4886,14.2033296 53.50716,17.529171 92.2325,49.063626 105.04348,85.538028 3.41569,9.7249 4.13231,13.75249 4.41965,24.83957 0.31299,12.07746 0.13374,13.51668 -1.77018,14.21214 -0.75592,0.27612 -10.69305,3.95294 -22.08252,8.1707 -36.52501,13.52599 -69.09964,25.28797 -69.58584,25.1259 -0.25982,-0.0866 0.94584,-1.85421 2.67927,-3.92801 17.5735,-21.02424 21.16501,-44.63746 10.13966,-66.66545 -3.05886,-6.11141 -6.79798,-11.194737 -12.92803,-17.575598 C 307.55871,83.934645 299.8913,78.275735 287.4381,71.888793 271.97623,63.958782 255.35694,58.630257 236.70993,55.62418 205.1804,50.541318 168.07733,52.602855 141.93187,60.890277 l -4.16395,1.319866 -4.35802,-3.81005 C 121.0922,47.631214 109.87309,43.320442 94.072968,43.28548 c -7.093806,-0.0157 -8.729213,0.144972 -13.384521,1.314951 -18.617869,4.679075 -31.789085,15.96782 -38.542041,33.033493 -2.969486,7.504313 -3.557752,11.24564 -3.239054,20.600102 0.31845,9.347194 1.226493,13.588064 4.325342,20.200834 7.550084,16.11146 21.560185,26.27207 38.70815,28.07249 l 4.535393,0.47618 1.727422,2.16524 c 0.950079,1.19088 4.271854,4.66536 7.381725,7.72108 l 5.654306,5.55583 0.90851,3.78808 c 5.3038,22.11444 20.21689,41.06716 40.14547,51.02001 4.80625,2.40037 14.12683,5.5715 19.45952,6.62069 5.50717,1.08352 22.58062,0.92795 28.03173,-0.25542 17.7553,-3.85445 32.30217,-12.96197 42.35147,-26.51546 6.755,-9.11048 11.3764,-20.41481 12.51684,-30.61729 0.32944,-2.9472 0.453,-3.15092 4.49758,-7.4155 6.8242,-7.19541 9.702,-13.08266 10.20103,-20.86877 0.33156,-5.17312 -0.4535,-8.89001 -2.9117,-13.78564 -3.39671,-6.76471 -9.45826,-12.87819 -16.889,-17.0337 -7.52732,-4.20951 -19.17882,-7.872151 -28.02497,-8.809618 -2.65166,-0.281009 -8.29579,-0.885535 -12.54252,-1.343397 -9.73278,-1.049341 -20.69424,-0.741007 -26.65469,0.749766 -4.88401,1.221537 -12.06703,4.265679 -15.99617,6.779129 l -2.8586,1.82862 -0.25214,-2.12279 c -0.13868,-1.16753 -0.51008,-4.494852 -0.82533,-7.394046 -0.74292,-6.832257 -2.46945,-13.558399 -4.7439,-18.481155 -0.99978,-2.163893 -1.72375,-4.028387 -1.60881,-4.143317 0.64417,-0.644174 9.86709,-4.277789 14.19395,-5.592094 10.56066,-3.20784 11.95047,-3.384243 26.5165,-3.365676 12.134,0.01546 13.83283,0.124188 18.18275,1.163625 13.01439,3.109855 25.58767,8.908596 35.0782,16.177906 17.51073,13.412416 29.58231,32.765377 34.69907,55.628967 1.09543,4.89481 1.18481,6.39789 1.17109,19.69394 -0.0144,13.97453 -0.0561,14.56985 -1.42939,20.39658 -2.57989,10.94661 -6.46736,20.65719 -12.10377,30.23428 l -2.79648,4.75162 -6.98004,2.08156 c -19.92316,5.94139 -38.26071,9.20118 -60.26559,10.71313 -8.57738,0.58935 -28.45396,0.55564 -37.1231,-0.063 z"
       id="path3741"
       inkscape:connector-curvature="0"
       transform="scale(0.26458333)" />
    <path
       style="fill:#8800aa;stroke-width:0.50507629"
       d="m 164.27857,222.52112 c -28.64983,-4.6339 -51.50368,-25.04388 -59.61568,-53.24069 -1.77279,-6.1621 -1.64418,-6.46821 1.78445,-4.24721 4.36629,2.82841 16.39926,8.49342 22.22335,10.46255 2.91682,0.98618 8.23891,2.50575 11.82687,3.37681 5.96474,1.44809 6.80308,1.798 9.78659,4.08473 6.92699,5.30926 14.11979,7.9118 23.11194,8.36253 10.75584,0.53913 20.04007,-2.55958 27.3903,-9.14181 1.45784,-1.30552 2.78192,-1.88012 5.91859,-2.56845 13.35974,-2.93172 24.97287,-7.57842 33.71384,-13.48973 1.5973,-1.08022 2.90419,-1.8717 2.90419,-1.75884 0,0.11286 -0.33896,2.14892 -0.75324,4.52457 -3.42584,19.64523 -16.09935,36.85901 -34.04756,46.24508 -5.24749,2.74419 -13.10482,5.55726 -19.24236,6.88914 -5.38624,1.16883 -19.16597,1.44514 -25.00128,0.50132 z"
       id="path3743"
       inkscape:connector-curvature="0"
       transform="scale(0.26458333)" />
    <path
       style="fill:#8800aa;stroke-width:0.50507629"
       d="m 125.33501,81.779284 c -1.04148,-1.714456 -3.29009,-4.541451 -4.99691,-6.282211 l -3.10332,-3.165018 4.4964,-2.08912 c 2.47303,-1.149016 6.80615,-3.004688 9.62916,-4.123715 l 5.13275,-2.034596 1.80419,2.094818 c 2.75723,3.201385 5.37579,7.739508 4.61258,7.993909 -1.17386,0.391286 -9.40687,5.970193 -12.338,8.360553 -1.59337,1.299415 -2.99745,2.362573 -3.12015,2.362573 -0.12271,0 -1.07522,-1.402737 -2.1167,-3.117193 z"
       id="path3745"
       inkscape:connector-curvature="0"
       transform="scale(0.26458333)" />
    <path
       style="fill:#aa0044;stroke-width:0.50507629"
       d="m 172.15147,137.488 -1.21847,-0.34079 1.72355,-1.45726 c 0.94795,-0.8015 3.18516,-2.14348 4.97158,-2.98219 2.8356,-1.3313 3.82967,-1.5295 7.82868,-1.56087 4.53779,-0.0356 4.58065,-0.0243 4.58065,1.20515 0,3.40669 -11.87602,6.81689 -17.88599,5.13596 z"
       id="path3747"
       inkscape:connector-curvature="0"
       transform="scale(0.26458333)" />
    <path
       style="fill:#aa0044;stroke-width:0.50507629"
       d="m 101.39657,142.48854 c 0,-0.25669 0.33935,-3.0353 0.7541,-6.17468 2.27252,-17.20141 9.45604,-32.40408 21.43171,-45.356468 3.52235,-3.809638 3.45202,-3.840439 5.17167,2.264694 1.61979,5.750583 1.62963,15.490414 0.0213,21.119924 -3.72813,13.04955 -12.90644,22.90016 -26.24239,28.16462 -0.68228,0.26933 -1.13643,0.26211 -1.13643,-0.0181 z"
       id="path3751"
       inkscape:connector-curvature="0"
       transform="scale(0.26458333)" />
    <path
       style="fill:#aa0044;stroke-width:0.50507629"
       d="m 75.637684,121.43495 c -3.697885,-1.82788 -9.060917,-7.22213 -11.000593,-11.0646 -2.438698,-4.83104 -3.292486,-8.46491 -3.255769,-13.857119 0.05788,-8.499299 3.257742,-15.842917 9.411712,-21.599654 C 81.987178,64.442004 98.81629,62.808501 112.13352,70.900899 l 2.40318,1.460329 -4.42349,2.768566 c -4.78607,2.995495 -10.987563,7.58518 -12.485649,9.240546 -0.730442,0.80713 -1.555193,1.031213 -3.795438,1.031213 -7.694645,0 -13.174837,4.865226 -13.122505,11.64995 0.01258,1.630542 0.387786,3.432617 0.924307,4.439307 0.896474,1.68209 0.890528,1.73142 -0.806081,6.68674 -1.224904,3.5776 -1.80882,6.35768 -2.060729,9.81134 l -0.351511,4.81921 z"
       id="path3753"
       inkscape:connector-curvature="0"
       transform="scale(0.26458333)" />
    <path
       style="fill:#aa0044;stroke-width:0.50507629"
       d="m 166.04634,188.94033 c -2.08344,-0.51637 -4.9245,-1.44024 -6.31346,-2.05303 -2.7148,-1.19774 -9.5778,-5.45716 -9.27494,-5.75636 0.10096,-0.0997 2.6837,0.18167 5.73941,0.62536 7.40093,1.07462 31.0593,1.071 38.3858,-0.006 2.77792,-0.40831 5.11049,-0.6968 5.18349,-0.64109 0.32821,0.25045 -6.17724,4.46132 -8.62033,5.5798 -7.18769,3.29063 -17.26093,4.1941 -25.09997,2.2512 z"
       id="path3755"
       inkscape:connector-curvature="0"
       transform="scale(0.26458333)" />
    <path
       style="fill:#2c2ca0;stroke-width:0.50507629"
       d="m 83.466367,123.96163 c -3.506642,-0.74153 -3.282996,-0.50839 -3.282996,-3.42247 0,-3.50108 1.127157,-9.34031 2.517324,-13.04099 1.031026,-2.74463 1.165653,-2.88474 2.443635,-2.54318 2.206317,0.58967 4.210276,0.24559 5.471745,-0.93949 1.244784,-1.16942 1.607125,-3.64564 0.622505,-4.254173 -0.768265,-0.474814 -1.522743,0.864453 -0.905782,1.607843 0.790415,0.9524 -1.96321,2.8547 -3.561575,2.46048 -0.706503,-0.17426 -1.468165,-0.49573 -1.692583,-0.71438 -0.876367,-0.85384 5.03118,-9.352192 9.583541,-13.786478 l 2.449753,-2.386214 2.572732,1.191964 c 3.340614,1.547727 6.061824,4.31044 7.712304,7.829933 1.15124,2.454893 1.32321,3.478016 1.32321,7.872365 0,4.43337 -0.16688,5.40688 -1.36524,7.96416 -1.66171,3.54609 -5.8772,7.88078 -9.400195,9.66602 -4.366629,2.21274 -10.68047,3.29986 -14.488378,2.49461 z"
       id="path3757"
       inkscape:connector-curvature="0"
       transform="scale(0.26458333)" />
    <path
       style="fill:#2c2ca0;stroke-width:0.50507629"
       d="m 205.86735,176.93273 c 2.03969,-2.86448 4.5661,-8.92264 5.35639,-12.84425 2.21591,-10.99587 -0.62325,-20.52418 -8.30144,-27.85988 -3.26917,-3.12335 -4.54241,-3.96978 -7.88663,-5.24291 -5.30863,-2.02098 -7.05951,-2.2789 -11.14741,-1.64209 -5.33962,0.8318 -8.04728,1.91426 -11.60038,4.63756 -3.05926,2.3448 -3.37797,2.47374 -4.84804,1.96127 -4.17937,-1.45694 -8.89295,-5.59293 -10.357,-9.08789 -1.21408,-2.89822 -0.98225,-7.46224 0.5307,-10.44789 1.58921,-3.13615 6.38403,-7.6539 10.58465,-9.973 6.45064,-3.56131 16.452,-6.13546 26.13242,-6.725977 4.46486,-0.272361 5.13159,-0.180953 9.59645,1.315657 18.13885,6.0801 31.88378,21.06028 37.10691,40.44169 0.85109,3.15814 1.49561,7.45599 1.8856,12.57381 l 0.59253,7.77559 -1.4528,1.15842 c -3.17119,2.52861 -11.95223,7.35526 -17.26794,9.4916 -5.40558,2.17247 -14.24824,4.93189 -18.15008,5.66388 l -1.87585,0.35192 z"
       id="path3759"
       inkscape:connector-curvature="0"
       transform="scale(0.26458333)" />
    <path
       style="fill:#00ff00;stroke-width:0.50507629"
       d="m 160.74304,180.82108 c -8.71017,-0.88511 -11.89766,-1.56442 -13.44332,-2.86501 -3.53875,-2.97766 -8.48655,-11.51127 -10.62779,-18.33006 -1.06541,-3.39277 -1.18105,-4.69306 -1.16596,-13.11023 0.0165,-9.22079 0.0385,-9.40713 1.66974,-14.14213 2.6138,-7.58721 6.64126,-14.15741 11.4554,-18.68783 l 1.87848,-1.76776 -0.34451,2.4039 c -0.59901,4.17967 -2.80586,11.06663 -5.1183,15.97274 -2.44742,5.19248 -2.56309,5.61448 -1.5389,5.61448 0.80825,0 3.82079,-5.52965 5.62738,-10.32931 0.68814,-1.82823 1.83654,-6.2151 2.55199,-9.7486 0.71546,-3.5335 1.46562,-6.54135 1.66704,-6.68411 10.20454,-7.23276 19.82497,-10.65725 29.71708,-10.578086 l 4.44071,0.03554 -4.40633,0.929081 c -13.73906,2.896895 -24.0901,9.035465 -27.69628,16.424975 -1.75186,3.58977 -1.68495,8.58169 0.16321,12.17617 1.67727,3.26212 5.55494,6.76851 9.49865,8.5892 2.20009,1.0157 2.98859,1.6314 2.80811,2.19273 -0.13802,0.42927 -0.62931,1.80326 -1.09177,3.05333 -1.07077,2.89437 -0.80783,9.06304 0.49516,11.61675 1.87711,3.67892 5.26705,6.06092 8.62558,6.06092 2.10429,0 3.46768,-0.61142 5.41648,-2.42906 1.55819,-1.4533 1.89518,-4.0982 0.65347,-5.12873 -1.11843,-0.92821 -1.75449,-0.19162 -1.45076,1.68006 0.36619,2.2566 -1.55345,3.85742 -4.6257,3.85742 -6.31161,0 -10.19246,-9.04271 -6.9688,-16.23793 l 1.05212,-2.34833 6.74312,-0.17791 c 6.32832,-0.16697 6.94959,-0.27568 10.09927,-1.76716 1.9382,-0.91779 3.84551,-2.25113 4.51441,-3.15586 0.63704,-0.86164 1.48144,-1.56662 1.87645,-1.56662 1.61826,0 6.80399,3.33426 9.37039,6.02486 8.49687,8.90808 9.82771,23.26924 3.22564,34.80816 -2.81126,4.91345 -4.06602,5.90968 -8.3078,6.5961 -9.32822,1.5095 -27.08877,2.00145 -36.76366,1.01831 z"
       id="path3767"
       inkscape:connector-curvature="0"
       transform="scale(0.26458333)" />
    <path
       style="fill:#ffff00;stroke-width:0.50507629"
       d="m 205.44229,178.10882 c 0,-0.0858 0.76058,-1.41899 1.69017,-2.96273 3.95008,-6.55976 5.87388,-17.09656 4.40944,-24.15077 -2.12084,-10.21604 -11.13995,-19.48984 -21.12852,-21.72519 -5.52904,-1.23734 -12.90758,0.67817 -18.73275,4.86314 -2.55045,1.83231 -2.7539,1.89085 -4.6244,1.33043 -2.28164,-0.6836 -6.45007,-3.83984 -8.22157,-6.22519 -6.90049,-9.29157 1.85833,-21.41257 19.07496,-26.39714 10.49672,-3.039017 19.93922,-3.634717 25.77615,-1.62614 14.18705,4.88197 25.68404,14.93699 32.43689,28.3686 4.12251,8.19979 5.655,14.08869 6.69211,25.71583 0.6359,7.12902 0.82886,6.7583 -5.44832,10.46709 -6.05144,3.57541 -9.78679,5.38963 -15.5781,7.5661 -4.61528,1.7345 -16.34606,5.16198 -16.34606,4.77597 z"
       id="path3769"
       inkscape:connector-curvature="0"
       transform="scale(0.26458333)" />
    <path
       style="fill:#ffffff;stroke-width:0.50507629"
       d="m 245.1705,158.63761 c -0.15335,-0.97227 -0.40345,-4.0642 -0.55578,-6.87095 -0.49666,-9.15145 -3.86479,-19.61444 -8.97846,-27.89123 -3.14371,-5.0883 -12.16872,-14.52892 -16.93212,-17.71186 -1.73422,-1.15882 -5.14348,-3.12003 -7.57614,-4.35826 l -4.42302,-2.251312 2.77792,0.296759 c 8.81147,0.941313 18.74121,3.748063 25.86137,7.310013 14.50329,7.25545 22.96474,19.30788 21.95586,31.27379 -0.59063,7.00526 -3.24952,12.54893 -9.08429,18.94036 l -2.76652,3.03046 z"
       id="path3771"
       inkscape:connector-curvature="0"
       transform="scale(0.26458333)" />
  </g>
</svg>
